<?xml version="1.0" standalone="no"?>
<!DOCTYPE svg PUBLIC "-//W3C//DTD SVG 20010904//EN" "http://www.w3.org/TR/2001/REC-SVG-20010904/DTD/svg10.dtd">
<svg version="1.0" xmlns="http://www.w3.org/2000/svg"
    width="512.000000pt" height="512.000000pt" viewBox="0 0 512.000000 512.000000"
    preserveAspectRatio="xMidYMid meet">

    <g transform="translate(0.000000,512.000000) scale(0.100000,-0.100000)"
        fill="#d8e2dc" stroke="none">
        <path
            d="M2080 4930 l0 -90 180 0 180 0 0 -134 0 -134 -72 -7 c-614 -56 -1145
-352 -1507 -840 -412 -553 -520 -1270 -290 -1920 153 -435 470 -829 862 -1072
614 -379 1372 -418 2006 -102 431 215 744 531 956 964 104 212 156 379 190
610 23 148 23 433 0 580 -89 594 -417 1109 -915 1442 -276 184 -629 306 -977
338 l-73 7 0 134 0 134 180 0 180 0 0 90 0 90 -450 0 -450 0 0 -90z m750 -564
c672 -113 1234 -572 1471 -1202 138 -367 159 -766 60 -1149 -169 -663 -709
-1195 -1376 -1358 -170 -42 -259 -52 -460 -52 -308 1 -532 50 -800 175 -321
149 -622 417 -805 715 -192 312 -282 631 -282 1000 0 369 90 686 283 1002 142
231 369 457 619 613 205 129 481 228 720 259 47 6 99 13 115 15 60 9 372 -4
455 -18z" />
        <path d="M2440 4075 l0 -135 90 0 90 0 0 135 0 135 -90 0 -90 0 0 -135z" />
        <path
            d="M1655 4009 c-38 -23 -72 -42 -74 -44 -2 -3 143 -261 154 -273 2 -2
138 72 154 84 4 4 -152 274 -159 274 -3 0 -36 -19 -75 -41z" />
        <path
            d="M3244 3915 c-42 -75 -75 -137 -73 -139 14 -11 151 -87 153 -84 2 1
37 63 80 137 59 102 74 136 64 143 -28 18 -137 78 -142 78 -2 0 -39 -61 -82
-135z" />
        <path
            d="M2440 3013 l0 -478 -227 -227 -228 -228 60 -60 c33 -33 64 -60 70
-60 14 0 480 469 494 497 8 15 11 178 11 527 l0 506 -90 0 -90 0 0 -477z" />
        <path
            d="M1017 3372 c-21 -37 -38 -71 -39 -76 0 -5 60 -44 133 -87 l134 -78
43 75 c23 41 41 78 38 83 -7 10 -251 151 -262 151 -5 0 -26 -30 -47 -68z" />
        <path
            d="M3854 3364 l-132 -76 46 -79 46 -78 30 18 c17 10 79 46 138 80 l107
62 -42 71 c-23 39 -46 73 -52 74 -5 2 -69 -31 -141 -72z" />
        <path
            d="M814 2577 c-3 -8 -4 -49 -2 -93 l3 -79 133 -3 132 -3 0 96 0 95 -130
0 c-100 0 -132 -3 -136 -13z" />
        <path
            d="M3974 2577 c-3 -8 -4 -49 -2 -93 l3 -79 135 0 135 0 0 90 0 90 -133
3 c-105 2 -134 0 -138 -11z" />
        <path
            d="M1100 1774 c-69 -40 -124 -79 -122 -86 2 -6 21 -42 42 -79 l40 -67
135 76 c74 43 134 81 135 85 0 18 -82 147 -93 146 -7 0 -68 -34 -137 -75z" />
        <path
            d="M3790 1818 c-36 -60 -64 -117 -60 -121 3 -2 64 -38 137 -80 l132 -76
32 57 c17 31 38 67 46 78 13 21 9 24 -119 98 -74 42 -137 76 -141 76 -4 0 -16
-15 -27 -32z" />
        <path
            d="M1656 1164 c-62 -108 -76 -138 -65 -145 38 -26 140 -81 144 -78 15
16 152 265 149 270 -3 6 -142 89 -148 89 -1 0 -37 -61 -80 -136z" />
        <path
            d="M3250 1259 c-36 -21 -69 -40 -75 -42 -9 -3 141 -277 152 -277 12 0
153 85 151 90 -11 26 -154 269 -158 269 -3 0 -34 -18 -70 -40z" />
        <path d="M2440 915 l0 -135 90 0 90 0 0 135 0 135 -90 0 -90 0 0 -135z" />
        <path
            d="M905 4934 c-11 -2 -45 -9 -75 -15 -154 -31 -260 -102 -460 -306 -132
-134 -162 -170 -198 -240 -59 -114 -83 -213 -83 -343 0 -186 66 -360 180 -481
67 -70 96 -75 157 -30 21 16 279 269 572 563 525 526 532 534 532 574 0 49
-15 72 -88 127 -123 95 -263 146 -417 152 -55 2 -109 2 -120 -1z m258 -205
c34 -11 82 -32 106 -46 l44 -25 -469 -469 c-258 -258 -472 -469 -476 -469 -9
0 -51 77 -74 135 -27 72 -27 278 0 350 43 109 80 160 225 306 132 132 154 150
231 187 47 23 108 45 135 51 70 14 205 5 278 -20z" />
        <path
            d="M3938 4930 c-114 -20 -227 -71 -324 -144 -73 -54 -94 -83 -94 -128 0
-31 47 -80 568 -601 657 -657 594 -611 697 -503 93 97 154 231 175 387 23 168
-21 354 -118 496 -22 32 -113 130 -203 218 -147 144 -173 165 -249 202 -47 23
-112 49 -145 58 -72 19 -242 27 -307 15z m227 -185 c39 -8 104 -31 145 -52 64
-31 97 -58 226 -187 110 -110 158 -167 181 -211 89 -172 89 -360 0 -528 l-31
-58 -472 472 c-260 260 -471 476 -469 479 10 17 141 73 198 85 82 18 137 18
222 0z" />
        <path
            d="M4885 3134 c-33 -25 -64 -49 -68 -54 -5 -4 5 -37 21 -71 69 -146 97
-298 96 -514 -1 -145 -20 -303 -50 -411 -5 -18 3 -22 73 -38 43 -10 83 -21 89
-23 12 -4 48 173 64 312 30 273 -14 564 -116 767 -18 36 -37 69 -41 71 -5 3
-35 -15 -68 -39z" />
        <path d="M0 2310 l0 -90 90 0 90 0 0 90 0 90 -90 0 -90 0 0 -90z" />
        <path
            d="M0 2020 c0 -58 24 -227 46 -318 58 -247 172 -433 321 -526 l43 -26
40 81 c23 45 40 82 38 83 -171 100 -269 312 -303 654 l-7 72 -89 0 c-83 0 -89
-1 -89 -20z" />
        <path
            d="M4752 1815 c-23 -47 -42 -87 -42 -90 0 -3 35 -22 78 -44 l79 -40 43
89 c24 49 42 91 39 94 -5 4 -147 76 -152 76 -1 0 -22 -38 -45 -85z" />
        <path
            d="M1240 424 c-69 -119 -126 -222 -128 -229 -2 -6 30 -31 69 -54 58 -33
75 -39 84 -29 17 18 258 439 254 442 -8 6 -148 86 -151 86 -2 0 -60 -97 -128
-216z" />
        <path
            d="M3623 599 c-40 -22 -73 -45 -73 -50 0 -9 244 -436 255 -447 3 -4 133
68 153 84 4 3 -237 424 -252 441 -8 9 -28 3 -83 -28z" />
    </g>
</svg>