<svg version="1.0" xmlns="http://www.w3.org/2000/svg"
    width="512.000000pt" height="512.000000pt" viewBox="0 0 512.000000 512.000000"
    preserveAspectRatio="xMidYMid meet">

    <g transform="translate(0.000000,512.000000) scale(0.100000,-0.100000)"
        fill="#ffffff" stroke="none">
        <path
            d="M2315 5109 c-797 -81 -1501 -518 -1927 -1196 -487 -774 -516 -1777
-75 -2578 196 -357 488 -676 822 -900 333 -223 691 -357 1110 -417 117 -16
512 -17 630 0 631 88 1152 360 1577 821 349 378 572 862 650 1406 17 118 17
512 0 630 -59 416 -191 769 -410 1099 -92 140 -185 254 -315 385 -399 404
-893 653 -1462 737 -122 18 -477 26 -600 13z m532 -264 c919 -121 1672 -766
1927 -1652 66 -228 81 -346 81 -633 0 -287 -15 -405 -81 -633 -209 -727 -769
-1312 -1487 -1552 -263 -87 -492 -120 -791 -112 -359 9 -630 75 -953 233 -580
283 -1018 808 -1198 1434 -65 224 -80 344 -80 630 0 223 3 271 24 385 180
1007 966 1762 1976 1899 140 19 437 19 582 1z" />
        <path
            d="M1369 3751 c-33 -33 -39 -45 -39 -83 0 -24 7 -55 16 -68 9 -14 244
-253 523 -532 l506 -508 -506 -507 c-279 -280 -514 -519 -523 -533 -9 -13 -16
-44 -16 -68 0 -38 6 -50 39 -83 33 -33 45 -39 83 -39 24 0 55 7 68 16 14 9
253 244 533 523 l507 506 508 -506 c279 -279 518 -514 532 -523 13 -9 44 -16
67 -16 80 0 139 83 119 167 -5 19 -172 193 -524 546 l-517 517 506 508 c279
279 514 518 523 532 9 13 16 44 16 68 0 38 -6 50 -39 83 -33 33 -45 39 -83 39
-24 0 -55 -7 -68 -16 -14 -9 -253 -244 -532 -523 l-508 -506 -507 506 c-280
279 -519 514 -533 523 -13 9 -44 16 -68 16 -38 0 -50 -6 -83 -39z" />
    </g>
</svg>