<svg version="1.0" xmlns="http://www.w3.org/2000/svg"
    width="512.000000pt" height="512.000000pt" viewBox="0 0 512.000000 512.000000"
    preserveAspectRatio="xMidYMid meet">

    <g transform="translate(0.000000,512.000000) scale(0.100000,-0.100000)"
        fill="#ffffff" stroke="none">
        <path
            d="M3460 5104 c-100 -43 -146 -154 -105 -251 20 -48 41 -70 90 -97 39
-21 51 -21 524 -24 l485 -3 -1226 -1227 c-1126 -1127 -1227 -1231 -1238 -1272
-40 -150 90 -280 240 -240 41 11 145 112 1272 1238 l1227 1226 3 -485 c3 -473
3 -485 24 -524 27 -49 49 -70 97 -90 103 -43 226 15 257 123 8 25 10 270 8
777 l-3 740 -23 33 c-13 17 -40 44 -59 60 l-36 27 -751 2 c-654 2 -755 0 -786
-13z" />
        <path
            d="M115 4446 c-42 -19 -74 -52 -96 -100 -18 -40 -19 -113 -19 -2114 0
-1848 2 -2077 15 -2110 21 -49 52 -81 100 -103 38 -18 119 -19 2116 -19 l2075
0 50 25 c28 14 59 40 74 62 l25 37 3 1224 c2 1217 2 1225 -18 1267 -45 92
-159 130 -249 83 -25 -13 -59 -40 -75 -61 l-31 -39 -3 -1104 -2 -1104 -1845 0
-1845 0 0 1845 0 1845 1104 2 1104 3 39 31 c21 16 48 50 61 75 47 89 9 204
-82 249 -42 20 -55 20 -1257 20 -995 -1 -1219 -3 -1244 -14z" />
    </g>
</svg>