<svg version="1.0" xmlns="http://www.w3.org/2000/svg"
    width="512.000000pt" height="512.000000pt" viewBox="0 0 512.000000 512.000000"
    preserveAspectRatio="xMidYMid meet">

    <g transform="translate(0.000000,512.000000) scale(0.100000,-0.100000)"
        fill="#ffffff" stroke="none">
        <path
            d="M1270 4903 c-230 -16 -454 -95 -645 -228 -100 -70 -270 -244 -343
-352 -295 -435 -362 -1002 -176 -1501 79 -213 172 -356 373 -569 82 -87 571
-579 1088 -1094 690 -689 945 -938 966 -941 15 -3 39 -3 55 0 20 3 304 281
1080 1056 580 578 1080 1085 1111 1126 79 103 133 190 185 301 244 516 195
1148 -126 1622 -73 108 -243 282 -343 352 -95 66 -242 140 -339 171 -424 134
-809 36 -1211 -308 -116 -100 -232 -218 -323 -330 -30 -38 -58 -68 -62 -68 -4
0 -32 30 -62 68 -141 173 -355 372 -513 477 -238 157 -491 234 -715 218z m238
-233 c296 -71 623 -325 904 -702 61 -83 87 -109 114 -118 63 -21 93 -2 182
118 283 380 608 631 910 703 112 27 295 22 417 -11 547 -148 917 -737 864
-1377 -22 -271 -117 -525 -275 -736 -44 -58 -387 -405 -1061 -1074 -547 -543
-999 -989 -1003 -991 -10 -4 -1649 1626 -1885 1874 -95 100 -195 214 -222 255
-302 447 -317 1063 -38 1524 175 289 435 480 735 540 102 20 261 18 358 -5z" />
    </g>
</svg>