<?xml version="1.0" standalone="no"?>
<!DOCTYPE svg PUBLIC "-//W3C//DTD SVG 20010904//EN"
 "http://www.w3.org/TR/2001/REC-SVG-20010904/DTD/svg10.dtd">
<svg version="1.0" xmlns="http://www.w3.org/2000/svg"
 width="512.000000pt" height="512.000000pt" viewBox="0 0 512.000000 512.000000"
 preserveAspectRatio="xMidYMid meet">

<g transform="translate(0.000000,512.000000) scale(0.100000,-0.100000)"
fill="#ffffff" stroke="none">
<path d="M2931 4594 c-39 -49 -52 -145 -70 -503 -9 -175 -11 -186 -40 -245
-56 -115 -131 -192 -526 -538 -304 -266 -438 -412 -473 -517 -9 -25 -12 -306
-12 -1055 l0 -1021 24 -50 c29 -61 66 -97 127 -124 44 -20 76 -21 1010 -32
530 -6 998 -9 1040 -7 135 8 239 80 297 206 54 117 29 270 -59 364 l-35 36 53
22 c75 31 137 90 175 167 27 55 32 77 32 137 1 93 -24 163 -79 224 l-44 49 57
23 c68 29 138 95 172 165 21 42 25 65 25 145 0 84 -3 101 -28 147 -15 29 -40
67 -57 86 l-29 34 53 22 c65 27 128 86 163 154 38 74 44 198 13 279 -26 71
-96 150 -164 186 l-51 27 -647 3 c-357 1 -648 6 -648 10 0 4 23 59 51 122 75
171 136 347 179 515 139 548 27 900 -311 980 -35 8 -90 15 -121 15 -49 0 -59
-3 -77 -26z"/>
<path d="M549 2966 c-86 -31 -137 -80 -165 -158 -21 -61 -21 -2055 1 -2117 21
-61 58 -104 117 -137 l53 -29 410 0 c400 0 411 1 450 21 51 28 91 68 119 119
l21 40 0 1035 c0 851 -2 1042 -14 1074 -17 49 -73 111 -125 139 -40 21 -52 22
-436 24 -307 2 -403 0 -431 -11z"/>
</g>
</svg>
