<?xml version="1.0" standalone="no"?>
<!DOCTYPE svg PUBLIC "-//W3C//DTD SVG 20010904//EN" "http://www.w3.org/TR/2001/REC-SVG-20010904/DTD/svg10.dtd">
<svg version="1.0" xmlns="http://www.w3.org/2000/svg"
    width="512.000000pt" height="512.000000pt" viewBox="0 0 512.000000 512.000000"
    preserveAspectRatio="xMidYMid meet">

    <g transform="translate(0.000000,512.000000) scale(0.100000,-0.100000)"
        fill="#F5C20D" stroke="none">
        <path
            d="M2210 4145 c-189 -476 -347 -869 -350 -874 -3 -4 -403 -33 -890 -65
-487 -31 -902 -60 -924 -64 l-38 -7 706 -599 c410 -347 706 -605 706 -615 0
-9 -103 -421 -230 -916 -126 -494 -228 -900 -226 -902 1 -1 355 221 787 494
495 314 793 497 809 497 16 0 314 -183 809 -497 432 -273 786 -495 787 -494 2
2 -100 408 -226 902 -127 495 -230 907 -230 916 0 10 296 268 706 615 l706
599 -38 7 c-22 4 -437 33 -924 64 -487 32 -887 61 -890 65 -3 5 -161 398 -350
874 -189 476 -347 865 -350 865 -3 0 -161 -389 -350 -865z m594 -547 c132
-332 243 -607 247 -612 5 -5 300 -28 656 -52 356 -24 649 -43 651 -44 2 0
-221 -189 -495 -421 -274 -232 -499 -425 -501 -429 -2 -5 69 -293 158 -641 88
-347 159 -633 157 -636 -3 -2 -251 153 -553 344 -302 191 -556 347 -564 347
-8 0 -262 -156 -564 -347 -302 -191 -550 -346 -553 -344 -2 3 69 289 157 636
89 348 160 636 158 641 -2 4 -225 196 -496 425 -271 229 -491 419 -488 422 3
3 293 24 646 48 352 23 644 46 649 51 4 5 115 280 247 612 131 331 241 602
244 602 3 0 113 -271 244 -602z" />
    </g>
</svg>